<svg xmlns="http://www.w3.org/2000/svg" width="462.667" height="462.667" preserveAspectRatio="xMidYMid meet" version="1.0" viewBox="0 0 347 347"><metadata>Created by potrace 1.14, written by Peter Selinger 2001-2017</metadata><g fill="#000" stroke="none"><path d="M1560 3463 c-90 -9 -295 -55 -385 -87 -90 -31 -239 -97 -290 -129 -188 -116 -249 -162 -371 -282 -163 -161 -277 -330 -379 -560 -56 -125 -100 -295 -125 -480 -8 -59 -6 -381 3 -420 3 -11 8 -40 12 -65 19 -121 83 -323 141 -445 36 -77 122 -224 146 -249 10 -11 18 -23 18 -27 0 -4 6 -14 12 -21 7 -7 25 -29 40 -49 37 -49 182 -197 248 -251 225 -187 548 -333 820 -373 25 -4 70 -11 100 -15 57 -8 338 -6 400 3 92 14 121 19 200 39 422 103 798 369 1036 733 109 168 190 357 238 558 34 141 40 207 40 392 1 213 -7 272 -61 470 -97 357 -318 681 -621 913 -45 34 -84 62 -87 62 -2 0 -23 13 -47 29 -154 103 -405 199 -628 238 -79 14 -379 24 -460 16z" transform="translate(0.000000,347.000000) scale(0.100000,-0.100000)"/></g></svg>